<svg xmlns="http://www.w3.org/2000/svg" xmlns:xlink="http://www.w3.org/1999/xlink" width="2000" zoomAndPan="magnify" viewBox="0 0 1500 1499.999933" height="2000" preserveAspectRatio="xMidYMid meet" version="1.0"><defs><g/><clipPath id="2078f82fd8"><rect x="0" width="1276" y="0" height="245"/></clipPath></defs><rect x="-150" width="1800" fill="#ffffff" y="-149.999993" height="1799.99992" fill-opacity="1"/><rect x="-150" width="1800" fill="#ffffff" y="-149.999993" height="1799.99992" fill-opacity="1"/><g transform="matrix(1, 0, 0, 1, 110, 627)"><g clip-path="url(#2078f82fd8)"><path stroke-linecap="butt" transform="matrix(0.878566, 0, 0, 0.878566, 658.406383, 224.63815)" fill="none" stroke-linejoin="miter" d="M -0.00015157 9.997801 L 230.266844 9.997801 " stroke="#004aad" stroke-width="20" stroke-opacity="1" stroke-miterlimit="4"/><g fill="#1a1a1a" fill-opacity="1"><g transform="translate(0.902566, 194.163763)"><g><path d="M 49.828125 -126.765625 L 0.796875 -126.765625 L 0.796875 -139.515625 L 113.609375 -139.515625 L 113.609375 -126.765625 L 64.578125 -126.765625 L 64.578125 0 L 49.828125 0 Z M 49.828125 -126.765625 "/></g></g></g><g fill="#1a1a1a" fill-opacity="1"><g transform="translate(111.320672, 194.163763)"><g/></g></g><g fill="#1a1a1a" fill-opacity="1"><g transform="translate(159.553805, 194.163763)"><g><path d="M 118 0 L 86.109375 -44.84375 C 82.515625 -44.445312 78.789062 -44.25 74.9375 -44.25 L 37.46875 -44.25 L 37.46875 0 L 22.71875 0 L 22.71875 -139.515625 L 74.9375 -139.515625 C 92.75 -139.515625 106.703125 -135.257812 116.796875 -126.75 C 126.890625 -118.25 131.9375 -106.5625 131.9375 -91.6875 C 131.9375 -80.789062 129.179688 -71.585938 123.671875 -64.078125 C 118.160156 -56.566406 110.289062 -51.148438 100.0625 -47.828125 L 134.140625 0 Z M 74.546875 -56.796875 C 88.359375 -56.796875 98.921875 -59.851562 106.234375 -65.96875 C 113.546875 -72.082031 117.203125 -80.65625 117.203125 -91.6875 C 117.203125 -102.976562 113.546875 -111.644531 106.234375 -117.6875 C 98.921875 -123.738281 88.359375 -126.765625 74.546875 -126.765625 L 37.46875 -126.765625 L 37.46875 -56.796875 Z M 74.546875 -56.796875 "/></g></g></g><g fill="#1a1a1a" fill-opacity="1"><g transform="translate(299.669231, 194.163763)"><g/></g></g><g fill="#1a1a1a" fill-opacity="1"><g transform="translate(347.902349, 194.163763)"><g><path d="M 22.71875 -139.515625 L 37.46875 -139.515625 L 37.46875 0 L 22.71875 0 Z M 22.71875 -139.515625 "/></g></g></g><g fill="#1a1a1a" fill-opacity="1"><g transform="translate(404.107926, 194.163763)"><g/></g></g><g fill="#1a1a1a" fill-opacity="1"><g transform="translate(452.341044, 194.163763)"><g><path d="M 138.71875 -139.515625 L 76.9375 0 L 62.390625 0 L 0.59375 -139.515625 L 16.546875 -139.515625 L 69.953125 -18.34375 L 123.765625 -139.515625 Z M 138.71875 -139.515625 "/></g></g></g><g fill="#1a1a1a" fill-opacity="1"><g transform="translate(587.473717, 194.163763)"><g/></g></g><g fill="#004aad" fill-opacity="1"><g transform="translate(635.707484, 194.163763)"><g><path d="M 22.71875 -139.515625 L 37.46875 -139.515625 L 37.46875 0 L 22.71875 0 Z M 22.71875 -139.515625 "/></g></g></g><g fill="#004aad" fill-opacity="1"><g transform="translate(691.913047, 194.163763)"><g/></g></g><g fill="#004aad" fill-opacity="1"><g transform="translate(740.146178, 194.163763)"><g><path d="M 69.765625 -142.3125 L 120.984375 0 L 102.046875 0 L 70.5625 -89.6875 C 68.4375 -95.800781 66.472656 -101.644531 64.671875 -107.21875 C 62.878906 -112.800781 61.382812 -117.988281 60.1875 -122.78125 C 59.125 -117.988281 57.726562 -112.800781 56 -107.21875 C 54.28125 -101.644531 52.359375 -95.867188 50.234375 -89.890625 L 18.9375 0 L 0 0 L 51.03125 -142.3125 Z M 69.765625 -142.3125 "/></g></g></g><g fill="#1a1a1a" fill-opacity="1"><g transform="translate(857.353141, 194.163763)"><g/></g></g><g fill="#1a1a1a" fill-opacity="1"><g transform="translate(905.586273, 194.163763)"><g><path d="M 139.3125 -139.515625 L 139.3125 0 L 127.15625 0 L 37.46875 -113.203125 L 37.46875 0 L 22.71875 0 L 22.71875 -139.515625 L 34.875 -139.515625 L 124.765625 -26.3125 L 124.765625 -139.515625 Z M 139.3125 -139.515625 "/></g></g></g><g fill="#1a1a1a" fill-opacity="1"><g transform="translate(1063.639666, 194.163763)"><g/></g></g><g fill="#1a1a1a" fill-opacity="1"><g transform="translate(1111.872784, 194.163763)"><g><path d="M 83.71875 1.203125 C 69.894531 1.203125 57.367188 -1.882812 46.140625 -8.0625 C 34.910156 -14.25 26.140625 -22.722656 19.828125 -33.484375 C 13.515625 -44.242188 10.359375 -56.335938 10.359375 -69.765625 C 10.359375 -83.179688 13.515625 -95.269531 19.828125 -106.03125 C 26.140625 -116.789062 34.910156 -125.257812 46.140625 -131.4375 C 57.367188 -137.625 69.894531 -140.71875 83.71875 -140.71875 C 97.53125 -140.71875 109.984375 -137.660156 121.078125 -131.546875 C 132.171875 -125.429688 140.90625 -116.957031 147.28125 -106.125 C 153.664062 -95.300781 156.859375 -83.179688 156.859375 -69.765625 C 156.859375 -56.335938 153.664062 -44.207031 147.28125 -33.375 C 140.90625 -22.550781 132.171875 -14.082031 121.078125 -7.96875 C 109.984375 -1.851562 97.53125 1.203125 83.71875 1.203125 Z M 83.71875 -11.953125 C 94.738281 -11.953125 104.703125 -14.441406 113.609375 -19.421875 C 122.515625 -24.410156 129.488281 -31.320312 134.53125 -40.15625 C 139.582031 -49 142.109375 -58.867188 142.109375 -69.765625 C 142.109375 -80.660156 139.582031 -90.523438 134.53125 -99.359375 C 129.488281 -108.191406 122.515625 -115.097656 113.609375 -120.078125 C 104.703125 -125.066406 94.738281 -127.5625 83.71875 -127.5625 C 72.6875 -127.5625 62.6875 -125.066406 53.71875 -120.078125 C 44.75 -115.097656 37.703125 -108.191406 32.578125 -99.359375 C 27.460938 -90.523438 24.90625 -80.660156 24.90625 -69.765625 C 24.90625 -58.867188 27.460938 -49 32.578125 -40.15625 C 37.703125 -31.320312 44.75 -24.410156 53.71875 -19.421875 C 62.6875 -14.441406 72.6875 -11.953125 83.71875 -11.953125 Z M 83.71875 -11.953125 "/></g></g></g></g></g></svg>